# xmcd
#
# Track frame offsets:
#	150
#	26807
#	43505
#	64127
#	77812
#	99650
#	123775
#	147282
#	170352
#
# Disc length: 2497 seconds
#
# Revision: 0
# Processed by: cddbd v1.5.2PL0 Copyright (c) Steve Scherf et al.
# Submitted via: audiograbber 1.83.01
#
DISCID=7409bf09
DTITLE=Nick Cave And The Bad Seeds - Henry's Dream
DYEAR=1992
DGENRE=Rock
TTITLE0=Papa Won't Leave You, Henry
TTITLE1=I Had A Dream, Joe
TTITLE2=Straight To You
TTITLE3=Brother, My Cup Is Empty
TTITLE4=Christina The Astonishing
TTITLE5=When I First Came To Town
TTITLE6=John Finn's Wife
TTITLE7=Loom Of The Land
TTITLE8=Jack The Ripper
EXTD=
EXTT0=
EXTT1=
EXTT2=
EXTT3=
EXTT4=
EXTT5=
EXTT6=
EXTT7=
EXTT8=
PLAYORDER=
